<svg width="20" height="20" viewBox="0 0 20 20" fill="none" xmlns="http://www.w3.org/2000/svg">
<path fill-rule="evenodd" clip-rule="evenodd" d="M9.99996 16.6667C13.6819 16.6667 16.6666 13.6819 16.6666 10C16.6666 6.3181 13.6819 3.33333 9.99996 3.33333C6.31806 3.33333 3.33329 6.3181 3.33329 10C3.33329 13.6819 6.31806 16.6667 9.99996 16.6667ZM9.99996 18.3333C14.6023 18.3333 18.3333 14.6024 18.3333 10C18.3333 5.39763 14.6023 1.66667 9.99996 1.66667C5.39759 1.66667 1.66663 5.39763 1.66663 10C1.66663 14.6024 5.39759 18.3333 9.99996 18.3333Z" fill="#33383F"/>
<path fill-rule="evenodd" clip-rule="evenodd" d="M5.84634 10.903C6.26808 10.7188 6.75934 10.9113 6.94361 11.333C7.45874 12.512 8.63436 13.3333 9.99994 13.3333C11.3655 13.3333 12.5411 12.512 13.0563 11.333C13.2405 10.9113 13.7318 10.7188 14.1536 10.903C14.5753 11.0873 14.7678 11.5786 14.5835 12.0003C13.8127 13.7645 12.0516 15 9.99994 15C7.94833 15 6.18715 13.7645 5.41635 12.0003C5.23209 11.5786 5.4246 11.0873 5.84634 10.903Z" fill="#33383F"/>
<path d="M7.50004 7.5C7.50004 7.96024 7.12694 8.33333 6.66671 8.33333C6.20647 8.33333 5.83337 7.96024 5.83337 7.5C5.83337 7.03976 6.20647 6.66667 6.66671 6.66667C7.12694 6.66667 7.50004 7.03976 7.50004 7.5Z" fill="#33383F"/>
<path d="M14.1667 7.5C14.1667 7.96024 13.7936 8.33333 13.3333 8.33333C12.8731 8.33333 12.5 7.96024 12.5 7.5C12.5 7.03976 12.8731 6.66667 13.3333 6.66667C13.7936 6.66667 14.1667 7.03976 14.1667 7.5Z" fill="#33383F"/>
</svg>
