<svg width="20" height="20" viewBox="0 0 20 20" fill="none" xmlns="http://www.w3.org/2000/svg">
<path d="M11.6843 2.5H13.75C14.2102 2.5 14.5833 2.8731 14.5833 3.33333C14.5833 3.79357 14.2102 4.16667 13.75 4.16667H12.3173L9.4006 15.8333H10.8333C11.2935 15.8333 11.6666 16.2064 11.6666 16.6667C11.6666 17.1269 11.2935 17.5 10.8333 17.5H8.35168C8.33987 17.5003 8.32802 17.5003 8.31615 17.5H6.24996C5.78972 17.5 5.41663 17.1269 5.41663 16.6667C5.41663 16.2064 5.78972 15.8333 6.24996 15.8333H7.68264L10.5993 4.16667H9.16663C8.70639 4.16667 8.33329 3.79357 8.33329 3.33333C8.33329 2.8731 8.70639 2.5 9.16663 2.5H11.6476C11.6598 2.49973 11.6721 2.49973 11.6843 2.5Z" fill="#33383F"/>
</svg>
