<svg width="20" height="20" viewBox="0 0 20 20" fill="none" xmlns="http://www.w3.org/2000/svg">
<path fill-rule="evenodd" clip-rule="evenodd" d="M4.16663 17.5C4.16663 17.0398 4.53972 16.6667 4.99996 16.6667H15C15.4602 16.6667 15.8333 17.0398 15.8333 17.5C15.8333 17.9602 15.4602 18.3333 15 18.3333H4.99996C4.53972 18.3333 4.16663 17.9602 4.16663 17.5Z" fill="#33383F"/>
<path fill-rule="evenodd" clip-rule="evenodd" d="M4.99996 1.66667C5.4602 1.66667 5.83329 2.03976 5.83329 2.5V9.16667C5.83329 11.4679 7.69877 13.3333 9.99996 13.3333C12.3011 13.3333 14.1666 11.4679 14.1666 9.16667V2.5C14.1666 2.03976 14.5397 1.66667 15 1.66667C15.4602 1.66667 15.8333 2.03976 15.8333 2.5V9.16667C15.8333 12.3883 13.2216 15 9.99996 15C6.7783 15 4.16663 12.3883 4.16663 9.16667V2.5C4.16663 2.03976 4.53972 1.66667 4.99996 1.66667Z" fill="#33383F"/>
</svg>
