<svg width="24" height="24" viewBox="0 0 24 24" fill="none" xmlns="http://www.w3.org/2000/svg">
<path fill-rule="evenodd" clip-rule="evenodd" d="M9.8774 15.2062C6.0334 15.2062 2.7504 15.7872 2.7504 18.1152C2.7504 20.4422 6.0124 21.0452 9.8774 21.0452C13.7214 21.0452 17.0044 20.4632 17.0044 18.1362C17.0044 15.8092 13.7424 15.2062 9.8774 15.2062Z" stroke="#6F767E" stroke-width="1.85" stroke-linecap="round" stroke-linejoin="round"/>
<path fill-rule="evenodd" clip-rule="evenodd" d="M9.87739 11.8859C12.4134 11.8859 14.4454 9.85288 14.4454 7.31788C14.4454 4.78188 12.4134 2.74988 9.87739 2.74988C7.34239 2.74988 5.30939 4.78188 5.30939 7.31788C5.30939 9.85288 7.34239 11.8859 9.87739 11.8859Z" stroke="#6F767E" stroke-width="1.85" stroke-linecap="round" stroke-linejoin="round"/>
<path d="M19.2041 8.66907V12.6791" stroke="#6F767E" stroke-width="1.85" stroke-linecap="round" stroke-linejoin="round"/>
<path d="M21.25 10.674H17.16" stroke="#6F767E" stroke-width="1.85" stroke-linecap="round" stroke-linejoin="round"/>
</svg>
