<svg width="57" height="17" viewBox="0 0 57 17" fill="none" xmlns="http://www.w3.org/2000/svg">
<rect width="57" height="17" rx="6" fill="#EFEFEF"/>
<path d="M8.87634 13H7.47861L10.6192 4.27273H12.1405L15.2812 13H13.8834L11.4161 5.85795H11.3479L8.87634 13ZM9.11071 9.58239H13.6448V10.6903H9.11071V9.58239ZM18.9644 6.45455V7.47727H15.3891V6.45455H18.9644ZM16.348 4.88636H17.6221V11.0781C17.6221 11.3253 17.659 11.5114 17.7329 11.6364C17.8068 11.7585 17.9019 11.8423 18.0184 11.8878C18.1377 11.9304 18.267 11.9517 18.4062 11.9517C18.5085 11.9517 18.598 11.9446 18.6747 11.9304C18.7514 11.9162 18.811 11.9048 18.8536 11.8963L19.0838 12.9489C19.0099 12.9773 18.9048 13.0057 18.7684 13.0341C18.632 13.0653 18.4616 13.0824 18.257 13.0852C17.9218 13.0909 17.6093 13.0312 17.3195 12.9062C17.0298 12.7812 16.7954 12.5881 16.6164 12.3267C16.4374 12.0653 16.348 11.7372 16.348 11.3423V4.88636ZM26.2372 13H23.4119V4.27273H26.3267C27.1818 4.27273 27.9162 4.44744 28.5298 4.79688C29.1435 5.14347 29.6136 5.64205 29.9403 6.29261C30.2699 6.94034 30.4347 7.71733 30.4347 8.62358C30.4347 9.53267 30.2685 10.3139 29.9361 10.9673C29.6065 11.6207 29.1293 12.1236 28.5043 12.4759C27.8793 12.8253 27.1236 13 26.2372 13ZM24.7287 11.8494H26.1648C26.8295 11.8494 27.3821 11.7244 27.8224 11.4744C28.2628 11.2216 28.5923 10.8565 28.8111 10.3793C29.0298 9.89915 29.1392 9.31392 29.1392 8.62358C29.1392 7.93892 29.0298 7.35795 28.8111 6.88068C28.5952 6.40341 28.2727 6.04119 27.8438 5.79403C27.4148 5.54687 26.8821 5.4233 26.2457 5.4233H24.7287V11.8494ZM34.6069 13.1321C33.9933 13.1321 33.4578 12.9915 33.0004 12.7102C32.543 12.429 32.1879 12.0355 31.935 11.5298C31.6822 11.0241 31.5558 10.4332 31.5558 9.7571C31.5558 9.07812 31.6822 8.48437 31.935 7.97585C32.1879 7.46733 32.543 7.07244 33.0004 6.79119C33.4578 6.50994 33.9933 6.36932 34.6069 6.36932C35.2206 6.36932 35.7561 6.50994 36.2135 6.79119C36.6708 7.07244 37.026 7.46733 37.2788 7.97585C37.5316 8.48437 37.6581 9.07812 37.6581 9.7571C37.6581 10.4332 37.5316 11.0241 37.2788 11.5298C37.026 12.0355 36.6708 12.429 36.2135 12.7102C35.7561 12.9915 35.2206 13.1321 34.6069 13.1321ZM34.6112 12.0625C35.0089 12.0625 35.3385 11.9574 35.5998 11.7472C35.8612 11.5369 36.0544 11.2571 36.1794 10.9077C36.3072 10.5582 36.3711 10.1733 36.3711 9.75284C36.3711 9.33523 36.3072 8.9517 36.1794 8.60227C36.0544 8.25 35.8612 7.96733 35.5998 7.75426C35.3385 7.54119 35.0089 7.43466 34.6112 7.43466C34.2106 7.43466 33.8782 7.54119 33.614 7.75426C33.3527 7.96733 33.1581 8.25 33.0302 8.60227C32.9052 8.9517 32.8427 9.33523 32.8427 9.75284C32.8427 10.1733 32.9052 10.5582 33.0302 10.9077C33.1581 11.2571 33.3527 11.5369 33.614 11.7472C33.8782 11.9574 34.2106 12.0625 34.6112 12.0625ZM41.7174 13.1321C41.1038 13.1321 40.5682 12.9915 40.1109 12.7102C39.6535 12.429 39.2984 12.0355 39.0455 11.5298C38.7927 11.0241 38.6663 10.4332 38.6663 9.7571C38.6663 9.07812 38.7927 8.48437 39.0455 7.97585C39.2984 7.46733 39.6535 7.07244 40.1109 6.79119C40.5682 6.50994 41.1038 6.36932 41.7174 6.36932C42.331 6.36932 42.8665 6.50994 43.3239 6.79119C43.7813 7.07244 44.1364 7.46733 44.3893 7.97585C44.6421 8.48437 44.7685 9.07812 44.7685 9.7571C44.7685 10.4332 44.6421 11.0241 44.3893 11.5298C44.1364 12.0355 43.7813 12.429 43.3239 12.7102C42.8665 12.9915 42.331 13.1321 41.7174 13.1321ZM41.7216 12.0625C42.1194 12.0625 42.4489 11.9574 42.7103 11.7472C42.9716 11.5369 43.1648 11.2571 43.2898 10.9077C43.4177 10.5582 43.4816 10.1733 43.4816 9.75284C43.4816 9.33523 43.4177 8.9517 43.2898 8.60227C43.1648 8.25 42.9716 7.96733 42.7103 7.75426C42.4489 7.54119 42.1194 7.43466 41.7216 7.43466C41.3211 7.43466 40.9887 7.54119 40.7245 7.75426C40.4631 7.96733 40.2685 8.25 40.1407 8.60227C40.0157 8.9517 39.9532 9.33523 39.9532 9.75284C39.9532 10.1733 40.0157 10.5582 40.1407 10.9077C40.2685 11.2571 40.4631 11.5369 40.7245 11.7472C40.9887 11.9574 41.3211 12.0625 41.7216 12.0625ZM46.0708 13V6.45455H47.3023V7.49432H47.3705C47.4898 7.14205 47.7 6.86506 48.0012 6.66335C48.3051 6.45881 48.6489 6.35653 49.0324 6.35653C49.1119 6.35653 49.2057 6.35937 49.3137 6.36506C49.4244 6.37074 49.5111 6.37784 49.5736 6.38636V7.60511C49.5225 7.59091 49.4315 7.57528 49.3009 7.55824C49.1702 7.53835 49.0395 7.52841 48.9088 7.52841C48.6077 7.52841 48.3392 7.59233 48.1034 7.72017C47.8705 7.84517 47.6858 8.01989 47.5494 8.24432C47.4131 8.46591 47.3449 8.71875 47.3449 9.00284V13H46.0708Z" fill="#1A1D1F"/>
</svg>
