<svg width="24" height="24" viewBox="0 0 24 24" fill="none" xmlns="http://www.w3.org/2000/svg">
<path d="M11.9499 13.4643L16.7071 8.70711C17.0976 8.31658 17.0976 7.68342 16.7071 7.29289C16.3166 6.90237 15.6834 6.90237 15.2929 7.29289L10.5357 12.0501L11.9499 13.4643Z" fill="#6F767E"/>
<path d="M8.29369 16.8792L6.30684 14.8924C6.30216 14.8879 6.29751 14.8833 6.29289 14.8787L3.70711 12.2929C3.31658 11.9024 2.68342 11.9024 2.29289 12.2929C1.90237 12.6834 1.90237 13.3166 2.29289 13.7071L4.87868 16.2929C5.80237 17.2166 7.17853 17.412 8.29369 16.8792Z" fill="#6F767E"/>
<path fill-rule="evenodd" clip-rule="evenodd" d="M21.707 7.24291C22.0976 7.63343 22.0976 8.26659 21.707 8.65712L14.0713 16.2929C12.8997 17.4645 11.0002 17.4645 9.82863 16.2929L7.24284 13.7071C6.85232 13.3166 6.85232 12.6834 7.24284 12.2929C7.63337 11.9024 8.26653 11.9024 8.65706 12.2929L11.2428 14.8787C11.6334 15.2692 12.2665 15.2692 12.6571 14.8787L20.2928 7.24291C20.6834 6.85238 21.3165 6.85238 21.707 7.24291Z" fill="#6F767E"/>
</svg>
