<svg width="20" height="20" viewBox="0 0 20 20" fill="none" xmlns="http://www.w3.org/2000/svg">
<path fill-rule="evenodd" clip-rule="evenodd" d="M13.9267 11.5046C14.6171 10.6434 15.029 9.55322 15.029 8.36231C15.029 5.58488 12.7774 3.33332 9.99997 3.33332C7.22254 3.33332 4.97099 5.58488 4.97099 8.36231C4.97099 9.55311 5.38278 10.6432 6.0731 11.5044L6.07806 11.5106C6.22421 11.6927 6.35952 11.8844 6.5001 12.0708C6.74425 12.3945 7.08855 12.849 7.48857 13.3718C8.23403 14.3461 9.16523 15.5471 10.0006 16.5782C10.8385 15.5449 11.7719 14.342 12.5188 13.3665C12.9195 12.8431 13.2643 12.3881 13.5089 12.0641C13.6487 11.8788 13.7815 11.6858 13.9267 11.5046ZM15.2295 12.549C15.2295 12.549 15.2281 12.5509 15.2271 12.5523C15.1844 12.6093 14.7925 13.1329 14.2247 13.8786C13.3823 14.9849 12.1526 16.5801 11.1012 17.8661C10.5261 18.5695 9.47407 18.5693 8.89929 17.8655C7.10233 15.6654 4.77829 12.5538 4.77829 12.5538L4.77287 12.5471C3.85397 11.4008 3.30432 9.94574 3.30432 8.36231C3.30432 4.6644 6.30207 1.66666 9.99997 1.66666C13.6979 1.66666 16.6956 4.6644 16.6956 8.36231C16.6956 9.34751 16.4828 10.283 16.1007 11.1254C15.8696 11.635 15.5764 12.1105 15.231 12.5423L15.2285 12.5453L15.2271 12.5471H15.231L15.2295 12.549Z" fill="#6F767E"/>
<path fill-rule="evenodd" clip-rule="evenodd" d="M10 9.16668C10.4602 9.16668 10.8333 8.79358 10.8333 8.33334C10.8333 7.87311 10.4602 7.50001 10 7.50001C9.53976 7.50001 9.16667 7.87311 9.16667 8.33334C9.16667 8.79358 9.53976 9.16668 10 9.16668ZM12.5 8.33334C12.5 9.71406 11.3807 10.8333 10 10.8333C8.61929 10.8333 7.5 9.71406 7.5 8.33334C7.5 6.95263 8.61929 5.83334 10 5.83334C11.3807 5.83334 12.5 6.95263 12.5 8.33334Z" fill="#6F767E"/>
</svg>
