<svg width="145" height="40" viewBox="0 0 145 40" fill="none" xmlns="http://www.w3.org/2000/svg">
<rect x="1" y="1" width="143" height="38" rx="7" fill="#FCFCFC"/>
<path d="M21.8334 14.1667C21.8334 13.7064 21.4603 13.3333 21 13.3333C20.5398 13.3333 20.1667 13.7064 20.1667 14.1667V19.1667H15.1667C14.7065 19.1667 14.3334 19.5398 14.3334 20C14.3334 20.4602 14.7065 20.8333 15.1667 20.8333H20.1667V25.8333C20.1667 26.2936 20.5398 26.6667 21 26.6667C21.4603 26.6667 21.8334 26.2936 21.8334 25.8333V20.8333H26.8334C27.2936 20.8333 27.6667 20.4602 27.6667 20C27.6667 19.5398 27.2936 19.1667 26.8334 19.1667H21.8334V14.1667Z" fill="#2F80ED"/>
<path d="M47.7298 15.5455V25H46.0032L41.8899 19.0494H41.8207V25H39.8217V15.5455H41.576L45.657 21.4915H45.7401V15.5455H47.7298ZM52.4459 25.1385C51.7165 25.1385 51.0887 24.9908 50.5624 24.6953C50.0392 24.3968 49.636 23.9751 49.3529 23.4304C49.0697 22.8826 48.9281 22.2347 48.9281 21.4869C48.9281 20.7575 49.0697 20.1173 49.3529 19.5664C49.636 19.0155 50.0346 18.5862 50.5485 18.2784C51.0656 17.9706 51.6719 17.8168 52.3674 17.8168C52.8352 17.8168 53.2707 17.8922 53.6739 18.043C54.0801 18.1907 54.4341 18.4138 54.7357 18.7124C55.0404 19.0109 55.2773 19.3864 55.4466 19.8388C55.6159 20.2881 55.7005 20.8144 55.7005 21.4176V21.9577H49.713V20.739H53.8493C53.8493 20.4558 53.7878 20.205 53.6647 19.9865C53.5415 19.768 53.3707 19.5972 53.1522 19.4741C52.9368 19.3479 52.686 19.2848 52.3997 19.2848C52.1012 19.2848 51.8365 19.354 51.6057 19.4925C51.378 19.628 51.1995 19.8111 51.0702 20.0419C50.9409 20.2696 50.8748 20.5236 50.8717 20.8036V21.9624C50.8717 22.3132 50.9363 22.6164 51.0656 22.8718C51.1979 23.1272 51.3841 23.3242 51.6242 23.4627C51.8642 23.6012 52.1489 23.6705 52.4782 23.6705C52.6967 23.6705 52.8968 23.6397 53.0784 23.5781C53.2599 23.5166 53.4154 23.4242 53.5446 23.3011C53.6739 23.178 53.7724 23.0272 53.8401 22.8487L55.659 22.9688C55.5666 23.4058 55.3774 23.7874 55.0911 24.1136C54.808 24.4368 54.4418 24.6892 53.9924 24.8707C53.5462 25.0492 53.0307 25.1385 52.4459 25.1385ZM58.2019 25L56.2722 17.9091H58.2619L59.3606 22.6733H59.4253L60.5702 17.9091H62.5229L63.6863 22.6456H63.7463L64.8266 17.9091H66.8116L64.8866 25H62.8045L61.5858 20.5405H61.4981L60.2793 25H58.2019ZM78.9884 18.8555H76.9664C76.9295 18.5939 76.8541 18.3615 76.7402 18.1584C76.6263 17.9522 76.4801 17.7768 76.3016 17.6321C76.1231 17.4875 75.9169 17.3767 75.683 17.2997C75.4522 17.2228 75.2014 17.1843 74.9306 17.1843C74.4412 17.1843 74.0149 17.3059 73.6518 17.549C73.2886 17.7891 73.007 18.1399 72.807 18.6016C72.6069 19.0601 72.5069 19.6172 72.5069 20.2727C72.5069 20.9467 72.6069 21.513 72.807 21.9716C73.0101 22.4302 73.2932 22.7764 73.6564 23.0103C74.0196 23.2442 74.4397 23.3612 74.9167 23.3612C75.1845 23.3612 75.4322 23.3258 75.66 23.255C75.8908 23.1842 76.0954 23.0811 76.2739 22.9457C76.4524 22.8072 76.6002 22.6394 76.7171 22.4425C76.8372 22.2455 76.9203 22.0208 76.9664 21.7685L78.9884 21.7777C78.9361 22.2116 78.8053 22.6302 78.596 23.0334C78.3898 23.4335 78.1113 23.792 77.7605 24.109C77.4127 24.4229 76.9972 24.6722 76.514 24.8569C76.0339 25.0385 75.4907 25.1293 74.8844 25.1293C74.0411 25.1293 73.2871 24.9384 72.6223 24.5568C71.9606 24.1752 71.4374 23.6228 71.0527 22.8995C70.6711 22.1763 70.4803 21.3007 70.4803 20.2727C70.4803 19.2417 70.6742 18.3646 71.0619 17.6413C71.4497 16.9181 71.976 16.3672 72.6408 15.9886C73.3056 15.607 74.0534 15.4162 74.8844 15.4162C75.4322 15.4162 75.94 15.4931 76.4078 15.647C76.8787 15.8009 77.2957 16.0256 77.6589 16.321C78.0221 16.6134 78.3175 16.9719 78.5453 17.3967C78.7761 17.8214 78.9238 18.3076 78.9884 18.8555ZM84.8021 21.9808V17.9091H86.7688V25H84.8806V23.712H84.8068C84.6467 24.1275 84.3805 24.4614 84.0081 24.7138C83.6388 24.9661 83.1879 25.0923 82.6555 25.0923C82.1815 25.0923 81.7645 24.9846 81.4044 24.7692C81.0443 24.5537 80.7627 24.2475 80.5596 23.8505C80.3596 23.4535 80.258 22.978 80.2549 22.424V17.9091H82.2215V22.0732C82.2246 22.4917 82.3369 22.8226 82.5585 23.0657C82.7801 23.3088 83.0771 23.4304 83.4495 23.4304C83.6865 23.4304 83.9081 23.3765 84.1143 23.2688C84.3205 23.158 84.4867 22.9949 84.6129 22.7795C84.7421 22.564 84.8052 22.2978 84.8021 21.9808ZM94.1117 19.9311L92.3113 20.0419C92.2805 19.888 92.2143 19.7495 92.1128 19.6264C92.0112 19.5002 91.8773 19.4002 91.7111 19.3263C91.548 19.2494 91.3526 19.2109 91.1248 19.2109C90.8201 19.2109 90.5632 19.2756 90.3539 19.4048C90.1446 19.531 90.04 19.7003 90.04 19.9126C90.04 20.0819 90.1077 20.225 90.2431 20.342C90.3785 20.4589 90.6109 20.5528 90.9402 20.6236L92.2236 20.8821C92.9129 21.0237 93.4269 21.2514 93.7655 21.5653C94.104 21.8793 94.2733 22.2917 94.2733 22.8026C94.2733 23.2673 94.1363 23.6751 93.8624 24.0259C93.5916 24.3768 93.2192 24.6507 92.7452 24.8477C92.2743 25.0415 91.7311 25.1385 91.1156 25.1385C90.1769 25.1385 89.429 24.9431 88.872 24.5522C88.318 24.1583 87.9933 23.6228 87.8979 22.9457L89.8322 22.8441C89.8907 23.1303 90.0323 23.3488 90.2569 23.4996C90.4816 23.6474 90.7694 23.7212 91.1202 23.7212C91.4649 23.7212 91.7419 23.6551 91.9512 23.5227C92.1635 23.3873 92.2713 23.2134 92.2743 23.0011C92.2713 22.8226 92.1959 22.6764 92.0481 22.5625C91.9004 22.4455 91.6727 22.3563 91.3649 22.2947L90.1369 22.0501C89.4444 21.9116 88.9289 21.6715 88.5904 21.3299C88.2549 20.9883 88.0872 20.5528 88.0872 20.0234C88.0872 19.5679 88.2103 19.1755 88.4565 18.8462C88.7058 18.5169 89.0551 18.263 89.5044 18.0845C89.9569 17.906 90.4862 17.8168 91.0925 17.8168C91.9881 17.8168 92.6929 18.006 93.2069 18.3846C93.7239 18.7631 94.0255 19.2786 94.1117 19.9311ZM99.1533 17.9091V19.3864H94.8831V17.9091H99.1533ZM95.8525 16.2102H97.8191V22.821C97.8191 23.0026 97.8468 23.1442 97.9022 23.2457C97.9576 23.3442 98.0346 23.4135 98.1331 23.4535C98.2346 23.4935 98.3516 23.5135 98.4839 23.5135C98.5762 23.5135 98.6686 23.5058 98.7609 23.4904C98.8532 23.4719 98.924 23.4581 98.9733 23.4489L99.2826 24.9123C99.1841 24.9431 99.0456 24.9785 98.8671 25.0185C98.6886 25.0616 98.4716 25.0877 98.2162 25.0969C97.7422 25.1154 97.3267 25.0523 96.9697 24.9077C96.6158 24.763 96.3403 24.5384 96.1434 24.2337C95.9464 23.929 95.8494 23.5443 95.8525 23.0795V16.2102ZM103.432 25.1385C102.715 25.1385 102.095 24.9862 101.572 24.6815C101.051 24.3737 100.65 23.9459 100.367 23.3981C100.084 22.8472 99.942 22.2086 99.942 21.4822C99.942 20.7498 100.084 20.1096 100.367 19.5618C100.65 19.0109 101.051 18.5831 101.572 18.2784C102.095 17.9706 102.715 17.8168 103.432 17.8168C104.149 17.8168 104.768 17.9706 105.288 18.2784C105.811 18.5831 106.214 19.0109 106.497 19.5618C106.781 20.1096 106.922 20.7498 106.922 21.4822C106.922 22.2086 106.781 22.8472 106.497 23.3981C106.214 23.9459 105.811 24.3737 105.288 24.6815C104.768 24.9862 104.149 25.1385 103.432 25.1385ZM103.441 23.6151C103.767 23.6151 104.04 23.5227 104.258 23.3381C104.477 23.1503 104.642 22.8949 104.752 22.5717C104.866 22.2486 104.923 21.8808 104.923 21.4684C104.923 21.056 104.866 20.6882 104.752 20.3651C104.642 20.0419 104.477 19.7865 104.258 19.5987C104.04 19.411 103.767 19.3171 103.441 19.3171C103.112 19.3171 102.835 19.411 102.61 19.5987C102.389 19.7865 102.221 20.0419 102.107 20.3651C101.996 20.6882 101.941 21.056 101.941 21.4684C101.941 21.8808 101.996 22.2486 102.107 22.5717C102.221 22.8949 102.389 23.1503 102.61 23.3381C102.835 23.5227 103.112 23.6151 103.441 23.6151ZM108.071 25V17.9091H109.945V19.1602H110.028C110.176 18.7447 110.422 18.4169 110.767 18.1768C111.112 17.9368 111.524 17.8168 112.004 17.8168C112.49 17.8168 112.904 17.9383 113.246 18.1815C113.588 18.4215 113.815 18.7478 113.929 19.1602H114.003C114.148 18.7539 114.409 18.4292 114.788 18.1861C115.169 17.9399 115.62 17.8168 116.14 17.8168C116.802 17.8168 117.339 18.0276 117.752 18.4492C118.167 18.8678 118.375 19.4618 118.375 20.2312V25H116.413V20.619C116.413 20.225 116.308 19.9296 116.099 19.7326C115.89 19.5356 115.628 19.4371 115.314 19.4371C114.957 19.4371 114.679 19.551 114.479 19.7788C114.278 20.0034 114.178 20.3004 114.178 20.6697V25H112.272V20.5774C112.272 20.2296 112.172 19.9527 111.972 19.7464C111.775 19.5402 111.515 19.4371 111.192 19.4371C110.973 19.4371 110.776 19.4925 110.601 19.6033C110.428 19.7111 110.291 19.8634 110.19 20.0604C110.088 20.2543 110.037 20.482 110.037 20.7436V25H108.071ZM123.03 25.1385C122.3 25.1385 121.673 24.9908 121.146 24.6953C120.623 24.3968 120.22 23.9751 119.937 23.4304C119.654 22.8826 119.512 22.2347 119.512 21.4869C119.512 20.7575 119.654 20.1173 119.937 19.5664C120.22 19.0155 120.618 18.5862 121.132 18.2784C121.649 17.9706 122.256 17.8168 122.951 17.8168C123.419 17.8168 123.855 17.8922 124.258 18.043C124.664 18.1907 125.018 18.4138 125.32 18.7124C125.624 19.0109 125.861 19.3864 126.031 19.8388C126.2 20.2881 126.284 20.8144 126.284 21.4176V21.9577H120.297V20.739H124.433C124.433 20.4558 124.372 20.205 124.249 19.9865C124.125 19.768 123.955 19.5972 123.736 19.4741C123.521 19.3479 123.27 19.2848 122.984 19.2848C122.685 19.2848 122.42 19.354 122.19 19.4925C121.962 19.628 121.783 19.8111 121.654 20.0419C121.525 20.2696 121.459 20.5236 121.456 20.8036V21.9624C121.456 22.3132 121.52 22.6164 121.649 22.8718C121.782 23.1272 121.968 23.3242 122.208 23.4627C122.448 23.6012 122.733 23.6705 123.062 23.6705C123.281 23.6705 123.481 23.6397 123.662 23.5781C123.844 23.5166 123.999 23.4242 124.129 23.3011C124.258 23.178 124.356 23.0272 124.424 22.8487L126.243 22.9688C126.151 23.4058 125.961 23.7874 125.675 24.1136C125.392 24.4368 125.026 24.6892 124.576 24.8707C124.13 25.0492 123.615 25.1385 123.03 25.1385ZM127.438 25V17.9091H129.344V19.1463H129.418C129.548 18.7062 129.765 18.3738 130.069 18.1491C130.374 17.9214 130.725 17.8075 131.122 17.8075C131.22 17.8075 131.326 17.8137 131.44 17.826C131.554 17.8383 131.654 17.8552 131.74 17.8768V19.6218C131.648 19.5941 131.52 19.5695 131.357 19.5479C131.194 19.5264 131.045 19.5156 130.909 19.5156C130.62 19.5156 130.362 19.5787 130.134 19.7049C129.909 19.828 129.731 20.0004 129.598 20.2219C129.469 20.4435 129.404 20.699 129.404 20.9883V25H127.438Z" fill="#2F80ED"/>
<rect x="1" y="1" width="143" height="38" rx="7" stroke="#EFEFEF" stroke-width="2"/>
</svg>
