<svg width="36" height="36" viewBox="0 0 36 36" fill="none" xmlns="http://www.w3.org/2000/svg">
<rect width="36" height="36" rx="18" fill="#EFEFEF"/>
<path fill-rule="evenodd" clip-rule="evenodd" d="M18 16.3333C19.3807 16.3333 20.5 15.214 20.5 13.8333C20.5 12.4526 19.3807 11.3333 18 11.3333C16.6193 11.3333 15.5 12.4526 15.5 13.8333C15.5 15.214 16.6193 16.3333 18 16.3333ZM18 18C20.3012 18 22.1666 16.1345 22.1666 13.8333C22.1666 11.5321 20.3012 9.66666 18 9.66666C15.6988 9.66666 13.8333 11.5321 13.8333 13.8333C13.8333 16.1345 15.6988 18 18 18Z" fill="#2F80ED"/>
<path fill-rule="evenodd" clip-rule="evenodd" d="M15.5 21.3333C13.6591 21.3333 12.1667 22.8257 12.1667 24.6667V25.5C12.1667 25.9602 11.7936 26.3333 11.3333 26.3333C10.8731 26.3333 10.5 25.9602 10.5 25.5V24.6667C10.5 21.9052 12.7386 19.6667 15.5 19.6667H20.5C23.2614 19.6667 25.5 21.9052 25.5 24.6667V25.5C25.5 25.9602 25.1269 26.3333 24.6667 26.3333C24.2064 26.3333 23.8333 25.9602 23.8333 25.5V24.6667C23.8333 22.8257 22.3409 21.3333 20.5 21.3333H15.5Z" fill="#2F80ED"/>
</svg>
