<svg width="14" height="14" viewBox="0 0 14 14" fill="none" xmlns="http://www.w3.org/2000/svg">
<path fill-rule="evenodd" clip-rule="evenodd" d="M13.6667 7C13.6667 10.6819 10.6819 13.6667 7.00004 13.6667C3.31814 13.6667 0.333374 10.6819 0.333374 7C0.333374 3.3181 3.31814 0.333328 7.00004 0.333328C10.6819 0.333328 13.6667 3.3181 13.6667 7ZM7.00004 6.33333C7.36823 6.33333 7.66671 6.6318 7.66671 7V10.3339C7.66671 10.7021 7.36823 11.0006 7.00004 11.0006C6.63185 11.0006 6.33337 10.7021 6.33337 10.3339V7C6.33337 6.6318 6.63185 6.33333 7.00004 6.33333ZM7.00004 5C7.36823 5 7.66671 4.70152 7.66671 4.33333C7.66671 3.96514 7.36823 3.66666 7.00004 3.66666C6.63185 3.66666 6.33337 3.96514 6.33337 4.33333C6.33337 4.70152 6.63185 5 7.00004 5Z" fill="#9A9FA5"/>
</svg>
