<svg width="48" height="48" viewBox="0 0 48 48" fill="none" xmlns="http://www.w3.org/2000/svg">
<rect x="1" y="1" width="46" height="46" rx="11" fill="#FCFCFC"/>
<path d="M26 18C26 19.1046 25.1046 20 24 20C22.8954 20 22 19.1046 22 18C22 16.8954 22.8954 16 24 16C25.1046 16 26 16.8954 26 18Z" fill="#6F767E"/>
<path d="M26 24C26 25.1046 25.1046 26 24 26C22.8954 26 22 25.1046 22 24C22 22.8954 22.8954 22 24 22C25.1046 22 26 22.8954 26 24Z" fill="#6F767E"/>
<path d="M26 30C26 31.1046 25.1046 32 24 32C22.8954 32 22 31.1046 22 30C22 28.8954 22.8954 28 24 28C25.1046 28 26 28.8954 26 30Z" fill="#6F767E"/>
<rect x="1" y="1" width="46" height="46" rx="11" stroke="#EFEFEF" stroke-width="2"/>
</svg>
