<svg width="36" height="36" viewBox="0 0 36 36" fill="none" xmlns="http://www.w3.org/2000/svg">
<rect width="36" height="36" rx="18" fill="#EFEFEF"/>
<path d="M23.8332 15.5C23.8332 15.9602 24.2063 16.3333 24.6665 16.3333C25.1267 16.3333 25.4998 15.9602 25.4998 15.5V12.1667C25.4998 11.2462 24.7536 10.5 23.8332 10.5H20.4998C20.0396 10.5 19.6665 10.8731 19.6665 11.3333C19.6665 11.7936 20.0396 12.1667 20.4998 12.1667L22.6547 12.1667L17.4106 17.4107C17.0851 17.7362 17.0851 18.2638 17.4106 18.5893C17.736 18.9147 18.2637 18.9147 18.5891 18.5893L23.8332 13.3452V15.5Z" fill="#2A85FF"/>
<path fill-rule="evenodd" clip-rule="evenodd" d="M10.5 13C10.5 11.6193 11.6193 10.5 13 10.5H17.1667C17.6269 10.5 18 10.8731 18 11.3333C18 11.7936 17.6269 12.1667 17.1667 12.1667H13C12.5398 12.1667 12.1667 12.5398 12.1667 13V23C12.1667 23.4602 12.5398 23.8333 13 23.8333H23C23.4602 23.8333 23.8333 23.4602 23.8333 23V18.8333C23.8333 18.3731 24.2064 18 24.6667 18C25.1269 18 25.5 18.3731 25.5 18.8333V23C25.5 24.3807 24.3807 25.5 23 25.5H13C11.6193 25.5 10.5 24.3807 10.5 23V13Z" fill="#2A85FF"/>
</svg>
