<svg width="14" height="8" viewBox="0 0 14 8" fill="none" xmlns="http://www.w3.org/2000/svg">
<path d="M12.2929 7.70711C12.6834 8.09763 13.3166 8.09763 13.7071 7.70711C14.0976 7.31658 14.0976 6.68342 13.7071 6.29289L12.2929 7.70711ZM7 1L7.70711 0.292893C7.31658 -0.097631 6.68342 -0.097631 6.29289 0.292893L7 1ZM0.292893 6.29289C-0.0976315 6.68342 -0.0976315 7.31658 0.292893 7.70711C0.683417 8.09763 1.31658 8.09763 1.70711 7.70711L0.292893 6.29289ZM13.7071 6.29289L7.70711 0.292893L6.29289 1.70711L12.2929 7.70711L13.7071 6.29289ZM6.29289 0.292893L0.292893 6.29289L1.70711 7.70711L7.70711 1.70711L6.29289 0.292893Z" fill="#6F767E"/>
</svg>
