<svg width="24" height="24" viewBox="0 0 24 24" fill="none" xmlns="http://www.w3.org/2000/svg">
<path fill-rule="evenodd" clip-rule="evenodd" d="M11 15.0859C11 15.6382 11.4477 16.0859 12 16.0859C12.5523 16.0859 13 15.6382 13 15.0859L13 6.9997L15.7929 9.79263C16.1834 10.1832 16.8166 10.1832 17.2071 9.79263C17.5976 9.40211 17.5976 8.76894 17.2071 8.37842L13.4142 4.58548C12.6331 3.80443 11.3668 3.80443 10.5857 4.58548L6.79476 8.37646C6.40423 8.76699 6.40423 9.40015 6.79476 9.79068C7.18528 10.1812 7.81844 10.1812 8.20897 9.79068L11 6.99968L11 15.0859Z" fill="#2F80ED"/>
<path fill-rule="evenodd" clip-rule="evenodd" d="M4 14C4.55228 14 5 14.4477 5 15V17C5 17.5523 5.44772 18 6 18H18C18.5523 18 19 17.5523 19 17V15C19 14.4477 19.4477 14 20 14C20.5523 14 21 14.4477 21 15V17C21 18.6569 19.6569 20 18 20H6C4.34315 20 3 18.6569 3 17V15C3 14.4477 3.44772 14 4 14Z" fill="#2F80ED"/>
</svg>
