<svg width="130" height="40" viewBox="0 0 130 40" fill="none" xmlns="http://www.w3.org/2000/svg">
<rect x="1" y="1" width="128" height="38" rx="7" fill="#FCFCFC"/>
<path fill-rule="evenodd" clip-rule="evenodd" d="M28 10C28.5523 10 29 10.4477 29 11V13C29 13.5523 28.5523 14 28 14C27.4477 14 27 13.5523 27 13V11C27 10.4477 27.4477 10 28 10Z" fill="#1A1D1F"/>
<path fill-rule="evenodd" clip-rule="evenodd" d="M28 26C28.5523 26 29 26.4477 29 27V29C29 29.5523 28.5523 30 28 30C27.4477 30 27 29.5523 27 29V27C27 26.4477 27.4477 26 28 26Z" fill="#1A1D1F"/>
<path fill-rule="evenodd" clip-rule="evenodd" d="M20.9289 12.9289C21.3194 12.5384 21.9526 12.5384 22.3431 12.9289L23.7573 14.3431C24.1479 14.7336 24.1479 15.3668 23.7573 15.7573C23.3668 16.1478 22.7336 16.1478 22.3431 15.7573L20.9289 14.3431C20.5384 13.9526 20.5384 13.3194 20.9289 12.9289Z" fill="#1A1D1F"/>
<path fill-rule="evenodd" clip-rule="evenodd" d="M32.2426 24.2426C32.6332 23.8521 33.2663 23.8521 33.6568 24.2426L35.0711 25.6568C35.4616 26.0473 35.4616 26.6805 35.0711 27.071C34.6805 27.4616 34.0474 27.4616 33.6568 27.071L32.2426 25.6568C31.8521 25.2663 31.8521 24.6331 32.2426 24.2426Z" fill="#1A1D1F"/>
<path fill-rule="evenodd" clip-rule="evenodd" d="M18 20C18 19.4477 18.4477 19 19 19L21 19C21.5523 19 22 19.4477 22 20C22 20.5523 21.5523 21 21 21L19 21C18.4477 21 18 20.5523 18 20Z" fill="#1A1D1F"/>
<path fill-rule="evenodd" clip-rule="evenodd" d="M34 20C34 19.4477 34.4477 19 35 19L37 19C37.5523 19 38 19.4477 38 20C38 20.5523 37.5523 21 37 21L35 21C34.4477 21 34 20.5523 34 20Z" fill="#1A1D1F"/>
<path fill-rule="evenodd" clip-rule="evenodd" d="M20.9289 27.071C20.5384 26.6804 20.5384 26.0473 20.9289 25.6568L22.3431 24.2425C22.7336 23.852 23.3668 23.852 23.7573 24.2425C24.1478 24.6331 24.1478 25.2662 23.7573 25.6568L22.3431 27.071C21.9526 27.4615 21.3194 27.4615 20.9289 27.071Z" fill="#1A1D1F"/>
<path fill-rule="evenodd" clip-rule="evenodd" d="M32.2426 15.7572C31.8521 15.3667 31.8521 14.7336 32.2426 14.343L33.6568 12.9288C34.0473 12.5383 34.6805 12.5383 35.071 12.9288C35.4616 13.3193 35.4616 13.9525 35.071 14.343L33.6568 15.7572C33.2663 16.1478 32.6331 16.1478 32.2426 15.7572Z" fill="#1A1D1F"/>
<path d="M48.8217 25V15.5455H50.8207V23.3519H54.8739V25H48.8217ZM59.2346 25.1385C58.5175 25.1385 57.8974 24.9862 57.3742 24.6815C56.854 24.3737 56.4524 23.9459 56.1693 23.3981C55.8861 22.8472 55.7446 22.2086 55.7446 21.4822C55.7446 20.7498 55.8861 20.1096 56.1693 19.5618C56.4524 19.0109 56.854 18.5831 57.3742 18.2784C57.8974 17.9706 58.5175 17.8168 59.2346 17.8168C59.9517 17.8168 60.5703 17.9706 61.0904 18.2784C61.6136 18.5831 62.0168 19.0109 62.3 19.5618C62.5831 20.1096 62.7247 20.7498 62.7247 21.4822C62.7247 22.2086 62.5831 22.8472 62.3 23.3981C62.0168 23.9459 61.6136 24.3737 61.0904 24.6815C60.5703 24.9862 59.9517 25.1385 59.2346 25.1385ZM59.2438 23.6151C59.5701 23.6151 59.8424 23.5227 60.061 23.3381C60.2795 23.1503 60.4441 22.8949 60.5549 22.5717C60.6688 22.2486 60.7257 21.8808 60.7257 21.4684C60.7257 21.056 60.6688 20.6882 60.5549 20.3651C60.4441 20.0419 60.2795 19.7865 60.061 19.5987C59.8424 19.411 59.5701 19.3171 59.2438 19.3171C58.9145 19.3171 58.6375 19.411 58.4129 19.5987C58.1913 19.7865 58.0236 20.0419 57.9097 20.3651C57.7989 20.6882 57.7435 21.056 57.7435 21.4684C57.7435 21.8808 57.7989 22.2486 57.9097 22.5717C58.0236 22.8949 58.1913 23.1503 58.4129 23.3381C58.6375 23.5227 58.9145 23.6151 59.2438 23.6151ZM65.8955 25.1339C65.443 25.1339 65.0399 25.0554 64.6859 24.8984C64.332 24.7384 64.0519 24.503 63.8457 24.1921C63.6426 23.8782 63.541 23.4873 63.541 23.0195C63.541 22.6256 63.6134 22.2947 63.758 22.027C63.9027 21.7592 64.0996 21.5438 64.3489 21.3807C64.5982 21.2176 64.8814 21.0945 65.1984 21.0114C65.5184 20.9283 65.8539 20.8698 66.2048 20.8359C66.6172 20.7929 66.9495 20.7528 67.2019 20.7159C67.4543 20.6759 67.6374 20.6174 67.7513 20.5405C67.8651 20.4635 67.9221 20.3497 67.9221 20.1989V20.1712C67.9221 19.8788 67.8298 19.6526 67.6451 19.4925C67.4635 19.3325 67.205 19.2525 66.8695 19.2525C66.5156 19.2525 66.234 19.331 66.0247 19.4879C65.8154 19.6418 65.6769 19.8357 65.6092 20.0696L63.7903 19.9219C63.8827 19.491 64.0642 19.1186 64.3351 18.8047C64.6059 18.4877 64.9552 18.2446 65.383 18.0753C65.8139 17.9029 66.3125 17.8168 66.8788 17.8168C67.2727 17.8168 67.6497 17.8629 68.0098 17.9553C68.373 18.0476 68.6946 18.1907 68.9746 18.3846C69.2578 18.5785 69.4809 18.8278 69.644 19.1325C69.8071 19.4341 69.8887 19.7957 69.8887 20.2173V25H68.0236V24.0167H67.9682C67.8544 24.2383 67.702 24.4337 67.5112 24.603C67.3204 24.7692 67.0911 24.9 66.8234 24.9954C66.5556 25.0877 66.2463 25.1339 65.8955 25.1339ZM66.4587 23.7766C66.748 23.7766 67.0034 23.7197 67.225 23.6058C67.4466 23.4889 67.6205 23.3319 67.7467 23.1349C67.8728 22.938 67.9359 22.7148 67.9359 22.4656V21.7131C67.8744 21.7531 67.7897 21.79 67.682 21.8239C67.5774 21.8546 67.4589 21.8839 67.3266 21.9116C67.1942 21.9362 67.0619 21.9593 66.9295 21.9808C66.7972 21.9993 66.6772 22.0162 66.5695 22.0316C66.3386 22.0655 66.137 22.1193 65.9647 22.1932C65.7923 22.267 65.6585 22.3671 65.5631 22.4933C65.4677 22.6164 65.42 22.7702 65.42 22.9549C65.42 23.2227 65.5169 23.4273 65.7108 23.5689C65.9078 23.7074 66.1571 23.7766 66.4587 23.7766ZM73.8974 25.1154C73.3588 25.1154 72.871 24.9769 72.434 24.6999C72 24.4199 71.6553 24.009 71.3999 23.4673C71.1475 22.9226 71.0213 22.2547 71.0213 21.4638C71.0213 20.6513 71.1521 19.9757 71.4137 19.4371C71.6753 18.8955 72.0231 18.4908 72.457 18.223C72.8941 17.9522 73.3726 17.8168 73.8928 17.8168C74.2898 17.8168 74.6206 17.8845 74.8853 18.0199C75.1531 18.1522 75.3685 18.3184 75.5316 18.5185C75.6978 18.7154 75.824 18.9093 75.9102 19.1001H75.9702V15.5455H77.9322V25H75.9933V23.8643H75.9102C75.8178 24.0613 75.687 24.2567 75.5178 24.4506C75.3516 24.6415 75.1346 24.8 74.8668 24.9261C74.6022 25.0523 74.279 25.1154 73.8974 25.1154ZM74.5206 23.5504C74.8376 23.5504 75.1054 23.4643 75.3239 23.2919C75.5455 23.1165 75.7147 22.8718 75.8317 22.5579C75.9517 22.244 76.0117 21.8762 76.0117 21.4545C76.0117 21.0329 75.9532 20.6667 75.8363 20.3558C75.7193 20.045 75.5501 19.8049 75.3285 19.6357C75.1069 19.4664 74.8376 19.3817 74.5206 19.3817C74.1974 19.3817 73.9251 19.4695 73.7035 19.6449C73.4819 19.8203 73.3142 20.0634 73.2003 20.3743C73.0864 20.6851 73.0295 21.0452 73.0295 21.4545C73.0295 21.867 73.0864 22.2317 73.2003 22.5487C73.3172 22.8626 73.485 23.1088 73.7035 23.2873C73.9251 23.4627 74.1974 23.5504 74.5206 23.5504ZM82.2979 25V17.9091H84.1722V19.1602H84.2553C84.403 18.7447 84.6492 18.4169 84.9939 18.1768C85.3386 17.9368 85.751 17.8168 86.2311 17.8168C86.7174 17.8168 87.1313 17.9383 87.473 18.1815C87.8146 18.4215 88.0423 18.7478 88.1562 19.1602H88.2301C88.3747 18.7539 88.6363 18.4292 89.0149 18.1861C89.3965 17.9399 89.8474 17.8168 90.3675 17.8168C91.0292 17.8168 91.5662 18.0276 91.9786 18.4492C92.3941 18.8678 92.6019 19.4618 92.6019 20.2312V25H90.6399V20.619C90.6399 20.225 90.5352 19.9296 90.3259 19.7326C90.1167 19.5356 89.8551 19.4371 89.5411 19.4371C89.1841 19.4371 88.9056 19.551 88.7056 19.7788C88.5055 20.0034 88.4055 20.3004 88.4055 20.6697V25H86.4989V20.5774C86.4989 20.2296 86.3989 19.9527 86.1988 19.7464C86.0018 19.5402 85.7418 19.4371 85.4186 19.4371C85.2001 19.4371 85.0031 19.4925 84.8277 19.6033C84.6554 19.7111 84.5184 19.8634 84.4168 20.0604C84.3153 20.2543 84.2645 20.482 84.2645 20.7436V25H82.2979ZM97.2291 25.1385C96.5121 25.1385 95.8919 24.9862 95.3687 24.6815C94.8486 24.3737 94.4469 23.9459 94.1638 23.3981C93.8807 22.8472 93.7391 22.2086 93.7391 21.4822C93.7391 20.7498 93.8807 20.1096 94.1638 19.5618C94.4469 19.0109 94.8486 18.5831 95.3687 18.2784C95.8919 17.9706 96.5121 17.8168 97.2291 17.8168C97.9462 17.8168 98.5648 17.9706 99.085 18.2784C99.6082 18.5831 100.011 19.0109 100.294 19.5618C100.578 20.1096 100.719 20.7498 100.719 21.4822C100.719 22.2086 100.578 22.8472 100.294 23.3981C100.011 23.9459 99.6082 24.3737 99.085 24.6815C98.5648 24.9862 97.9462 25.1385 97.2291 25.1385ZM97.2384 23.6151C97.5646 23.6151 97.837 23.5227 98.0555 23.3381C98.274 23.1503 98.4387 22.8949 98.5495 22.5717C98.6633 22.2486 98.7203 21.8808 98.7203 21.4684C98.7203 21.056 98.6633 20.6882 98.5495 20.3651C98.4387 20.0419 98.274 19.7865 98.0555 19.5987C97.837 19.411 97.5646 19.3171 97.2384 19.3171C96.9091 19.3171 96.6321 19.411 96.4074 19.5987C96.1858 19.7865 96.0181 20.0419 95.9042 20.3651C95.7934 20.6882 95.738 21.056 95.738 21.4684C95.738 21.8808 95.7934 22.2486 95.9042 22.5717C96.0181 22.8949 96.1858 23.1503 96.4074 23.3381C96.6321 23.5227 96.9091 23.6151 97.2384 23.6151ZM101.868 25V17.9091H103.775V19.1463H103.848C103.978 18.7062 104.195 18.3738 104.499 18.1491C104.804 17.9214 105.155 17.8075 105.552 17.8075C105.65 17.8075 105.757 17.8137 105.87 17.826C105.984 17.8383 106.084 17.8552 106.171 17.8768V19.6218C106.078 19.5941 105.95 19.5695 105.787 19.5479C105.624 19.5264 105.475 19.5156 105.34 19.5156C105.05 19.5156 104.792 19.5787 104.564 19.7049C104.339 19.828 104.161 20.0004 104.028 20.2219C103.899 20.4435 103.835 20.699 103.835 20.9883V25H101.868ZM109.959 25.1385C109.229 25.1385 108.602 24.9908 108.075 24.6953C107.552 24.3968 107.149 23.9751 106.866 23.4304C106.583 22.8826 106.441 22.2347 106.441 21.4869C106.441 20.7575 106.583 20.1173 106.866 19.5664C107.149 19.0155 107.547 18.5862 108.061 18.2784C108.578 17.9706 109.185 17.8168 109.88 17.8168C110.348 17.8168 110.784 17.8922 111.187 18.043C111.593 18.1907 111.947 18.4138 112.249 18.7124C112.553 19.0109 112.79 19.3864 112.959 19.8388C113.129 20.2881 113.213 20.8144 113.213 21.4176V21.9577H107.226V20.739H111.362C111.362 20.4558 111.301 20.205 111.178 19.9865C111.054 19.768 110.884 19.5972 110.665 19.4741C110.45 19.3479 110.199 19.2848 109.913 19.2848C109.614 19.2848 109.349 19.354 109.119 19.4925C108.891 19.628 108.712 19.8111 108.583 20.0419C108.454 20.2696 108.388 20.5236 108.385 20.8036V21.9624C108.385 22.3132 108.449 22.6164 108.578 22.8718C108.711 23.1272 108.897 23.3242 109.137 23.4627C109.377 23.6012 109.662 23.6705 109.991 23.6705C110.21 23.6705 110.41 23.6397 110.591 23.5781C110.773 23.5166 110.928 23.4242 111.057 23.3011C111.187 23.178 111.285 23.0272 111.353 22.8487L113.172 22.9688C113.079 23.4058 112.89 23.7874 112.604 24.1136C112.321 24.4368 111.955 24.6892 111.505 24.8707C111.059 25.0492 110.544 25.1385 109.959 25.1385Z" fill="#1A1D1F"/>
<rect x="1" y="1" width="128" height="38" rx="7" stroke="#EFEFEF" stroke-width="2"/>
</svg>
