<svg width="24" height="24" viewBox="0 0 24 24" fill="none" xmlns="http://www.w3.org/2000/svg">
<path d="M8.1793 10.6788C7.6856 10.6788 7.28544 11.079 7.28544 11.5725C7.28544 12.0662 7.68558 12.4663 8.1793 12.4663C8.67299 12.4663 9.07316 12.0662 9.07316 11.5725C9.07316 11.079 8.67301 10.6788 8.1793 10.6788ZM14.3275 13.1598C13.8338 13.1598 13.4337 13.56 13.4337 14.0535C13.4337 14.5472 13.8338 14.9473 14.3275 14.9473C14.8212 14.9473 15.2214 14.5472 15.2214 14.0535C15.2218 13.5602 14.8214 13.1598 14.3275 13.1598ZM13.0457 2.26786C7.27019 2.00257 3.49627 4.71314 3.49627 9.01459C3.49627 9.35691 3.77367 9.63433 4.11601 9.63433H5.06559V10.9752L3.07349 14.6953C2.97052 14.8872 2.97609 15.1194 3.08809 15.3064C3.19989 15.4933 3.40179 15.6076 3.61965 15.6076H5.06539V17.895C5.06539 19.2047 6.13098 20.2703 7.44074 20.2703H10.126V21.1899C10.126 21.532 10.4033 21.8096 10.7457 21.8096C11.088 21.8096 11.3654 21.532 11.3654 21.1899V19.8296L13.1362 17.0176C14.0508 17.5772 15.2019 17.8948 16.5737 17.9679V20.3404C16.5737 20.6825 16.8513 20.9601 17.1934 20.9601C17.5356 20.9601 17.8132 20.6825 17.8132 20.3404V17.9887H18.8156C19.0244 17.9887 19.219 17.8834 19.3336 17.7088C19.4093 17.5933 21.1909 14.8321 21.1909 10.6788C21.1907 8.69152 21.1907 2.64312 13.046 2.26838L13.0457 2.26786ZM10.4035 19.0307H7.44109C6.81485 19.0307 6.30498 18.5208 6.30498 17.8946V14.9875C6.30498 14.6454 6.02758 14.3678 5.68524 14.3678H4.65442L6.23136 11.4226C6.27957 11.3325 6.30493 11.2323 6.30493 11.1303V9.63378H8.79781C10.3406 9.63378 10.5069 10.8204 10.5069 11.3304C10.5069 13.4748 11.0702 15.119 12.1615 16.2382L10.4035 19.0307ZM18.4598 16.7493H17.1933C13.5278 16.7493 11.7463 14.9767 11.7463 11.3308C11.7463 9.57463 10.5616 8.39475 8.79796 8.39475H4.77072C5.13398 5.23256 8.30037 3.29008 12.9889 3.50597C19.1597 3.79008 19.9515 7.4884 19.9515 10.6786C19.9515 13.7276 18.8774 15.9864 18.46 16.7491L18.4598 16.7493Z" fill="#6F767E" stroke="#6F767E" stroke-width="0.5"/>
</svg>
